<svg width="44" height="44" viewBox="0 0 44 44" fill="none" xmlns="http://www.w3.org/2000/svg">
<g clip-path="url(#clip0_21_254)">
<path d="M22.0909 0.878906C33.8852 0.878906 43.4242 10.418 43.4242 22.2122C43.4242 34.0065 33.8852 43.5456 22.0909 43.5456C10.2966 43.5456 0.757568 34.0065 0.757568 22.2122C0.757568 10.418 10.2966 0.878906 22.0909 0.878906ZM18.1899 33.458C27.6376 33.458 32.8185 25.6256 32.8185 18.8294V18.1589C33.8242 17.4275 34.708 16.5132 35.3785 15.477C34.4642 15.8732 33.4585 16.1475 32.4223 16.2999C33.489 15.6599 34.3119 14.6541 34.6776 13.4656C33.6719 14.0446 32.5747 14.4713 31.4166 14.7151C30.4719 13.7094 29.1309 13.0999 27.668 13.0999C24.8338 13.0999 22.5176 15.416 22.5176 18.2503C22.5176 18.6465 22.548 19.0427 22.67 19.4084C18.4033 19.1951 14.5938 17.1532 12.0642 14.0446C11.6376 14.8065 11.3633 15.6903 11.3633 16.6351C11.3633 18.4027 12.2776 19.9875 13.649 20.9018C12.7957 20.9018 12.0033 20.658 11.3328 20.2618V20.3227C11.3328 22.8218 13.1004 24.8941 15.4471 25.3818C15.0204 25.5037 14.5633 25.5646 14.1061 25.5646C13.7709 25.5646 13.4661 25.5341 13.1309 25.4732C13.7709 27.5151 15.6909 29.0084 17.9157 29.0389C16.148 30.4103 13.9233 31.2332 11.5157 31.2332C11.089 31.2332 10.6928 31.2332 10.2966 31.1722C12.5519 32.6351 15.2642 33.4884 18.1595 33.4884" fill="#DE9000"/>
</g>
<defs>
<clipPath id="clip0_21_254">
<rect width="42.6667" height="42.6667" fill="white" transform="translate(0.757568 0.878906)"/>
</clipPath>
</defs>
</svg>
