<svg width="24" height="24" viewBox="0 0 24 24" fill="none" xmlns="http://www.w3.org/2000/svg">
<g clip-path="url(#clip0_19_103)">
<path d="M18 22H9C8.46957 22 7.96086 21.7893 7.58579 21.4142C7.21071 21.0391 7 20.5304 7 20V19C7 18.7348 7.10536 18.4804 7.29289 18.2929C7.48043 18.1054 7.73478 18 8 18C8.26522 18 8.51957 18.1054 8.70711 18.2929C8.89464 18.4804 9 18.7348 9 19V20H18V4H9V5C9 5.26522 8.89464 5.51957 8.70711 5.70711C8.51957 5.89464 8.26522 6 8 6C7.73478 6 7.48043 5.89464 7.29289 5.70711C7.10536 5.51957 7 5.26522 7 5V4C7 3.46957 7.21071 2.96086 7.58579 2.58579C7.96086 2.21071 8.46957 2 9 2H18C18.5304 2 19.0391 2.21071 19.4142 2.58579C19.7893 2.96086 20 3.46957 20 4V20C20 20.5304 19.7893 21.0391 19.4142 21.4142C19.0391 21.7893 18.5304 22 18 22Z" fill="#00D9F1"/>
<path d="M7.205 7.705C6.815 7.315 6.185 7.315 5.795 7.705L2.207 11.293C2.01953 11.4805 1.91421 11.7348 1.91421 12C1.91421 12.2652 2.01953 12.5195 2.207 12.707L5.795 16.295C5.98509 16.4668 6.23392 16.559 6.49007 16.5525C6.74621 16.5461 6.99008 16.4414 7.17126 16.2603C7.35244 16.0791 7.45708 15.8352 7.46354 15.5791C7.47001 15.3229 7.37781 15.0741 7.206 14.884L5.33 13H14C14.2652 13 14.5196 12.8946 14.7071 12.7071C14.8946 12.5196 15 12.2652 15 12C15 11.7348 14.8946 11.4804 14.7071 11.2929C14.5196 11.1054 14.2652 11 14 11H5.33L7.206 9.116C7.39242 8.92846 7.49698 8.67472 7.49679 8.41029C7.4966 8.14586 7.39169 7.89227 7.205 7.705Z" fill="#00D9F1"/>
</g>
<defs>
<clipPath id="clip0_19_103">
<rect width="24" height="24" fill="white"/>
</clipPath>
</defs>
</svg>
