<svg width="47" height="47" viewBox="0 0 47 47" fill="none" xmlns="http://www.w3.org/2000/svg">
<path d="M37.0258 5.81812H10.4289C9.32699 5.81914 8.27046 6.25735 7.49126 7.03655C6.71206 7.81575 6.27385 8.87228 6.27283 9.97424V36.5711C6.27283 38.8654 8.13658 40.7272 10.4289 40.7272H37.0258C38.1278 40.7262 39.1843 40.288 39.9635 39.5088C40.7427 38.7296 41.1809 37.673 41.1819 36.5711V9.97424C41.1809 8.87228 40.7427 7.81575 39.9635 7.03655C39.1843 6.25735 38.1278 5.81914 37.0258 5.81812ZM33.7056 21.0482C32.4823 21.1669 31.2514 20.9163 30.172 20.3287C29.2615 19.8378 28.4882 19.1271 27.9223 18.2613V27.8496C27.9223 29.2512 27.5067 30.6213 26.728 31.7867C25.9493 32.9521 24.8425 33.8604 23.5476 34.3967C22.2527 34.9331 20.8279 35.0734 19.4532 34.8C18.0786 34.5266 16.8159 33.8516 15.8248 32.8606C14.8337 31.8695 14.1588 30.6068 13.8854 29.2321C13.6119 27.8575 13.7523 26.4326 14.2886 25.1377C14.825 23.8428 15.7333 22.7361 16.8987 21.9574C18.064 21.1787 19.4341 20.7631 20.8357 20.7631C20.9831 20.7631 21.1266 20.7767 21.2721 20.7844V24.2773C21.1266 24.2598 20.9851 24.2327 20.8357 24.2327C19.8765 24.2327 18.9565 24.6137 18.2782 25.292C17.5998 25.9704 17.2188 26.8904 17.2188 27.8496C17.2188 28.8089 17.5998 29.7289 18.2782 30.4072C18.9565 31.0855 19.8765 31.4666 20.8357 31.4666C22.8333 31.4666 24.5982 29.8938 24.5982 27.8962L24.6331 11.6091H27.9746C28.1276 13.0606 28.7856 14.4123 29.8339 15.4279C30.8821 16.4435 32.2538 17.0585 33.7094 17.1655V21.0482" fill="#DE9000"/>
</svg>
