<svg width="24" height="24" viewBox="0 0 24 24" fill="none" xmlns="http://www.w3.org/2000/svg">
<path d="M8 3.39917C11.3138 3.39917 14 6.06723 14 9.35865C14 12.6501 11.3138 15.3181 8 15.3181C4.6862 15.3181 2 12.6501 2 9.35865C2 6.06723 4.6862 3.39917 8 3.39917ZM8 4.59107C6.72696 4.59107 5.50606 5.09336 4.60589 5.98746C3.70571 6.88155 3.2 8.0942 3.2 9.35865C3.2 10.6231 3.70571 11.8357 4.60589 12.7298C5.50606 13.6239 6.72696 14.1262 8 14.1262C9.27304 14.1262 10.4939 13.6239 11.3941 12.7298C12.2943 11.8357 12.8 10.6231 12.8 9.35865C12.8 8.0942 12.2943 6.88155 11.3941 5.98746C10.4939 5.09336 9.27304 4.59107 8 4.59107ZM8 5.78296C8.14696 5.78298 8.2888 5.83657 8.39862 5.93357C8.50844 6.03056 8.57861 6.16422 8.5958 6.30918L8.6 6.37891V9.11192L10.2242 10.7252C10.3318 10.8324 10.3943 10.9763 10.3989 11.1276C10.4036 11.279 10.3501 11.4264 10.2493 11.54C10.1484 11.6535 10.0079 11.7247 9.85612 11.7391C9.70436 11.7535 9.5528 11.7099 9.4322 11.6173L9.3758 11.5678L7.5758 9.77998C7.48255 9.68728 7.42266 9.56663 7.4054 9.43672L7.4 9.35865V6.37891C7.4 6.22085 7.46321 6.06927 7.57574 5.95751C7.68826 5.84575 7.84087 5.78296 8 5.78296Z" fill="#DE9000"/>
</svg>
