<svg width="48" height="47" viewBox="0 0 48 47" fill="none" xmlns="http://www.w3.org/2000/svg">
<path d="M25.9028 3.87891C28.0846 3.88472 29.192 3.89636 30.1481 3.92351L30.5244 3.93709C30.9588 3.9526 31.3874 3.972 31.9052 3.99527C33.9687 4.09224 35.3767 4.41806 36.6121 4.89709C37.8921 5.38969 38.9704 6.05685 40.0487 7.13321C41.0353 8.10239 41.7984 9.27522 42.2848 10.5698C42.7639 11.8052 43.0897 13.2132 43.1867 15.2787C43.2099 15.7945 43.2293 16.2231 43.2448 16.6595L43.2565 17.0358C43.2856 17.9899 43.2972 19.0973 43.3011 21.2792L43.303 22.7259V25.2665C43.3077 26.6811 43.2929 28.0957 43.2584 29.5099L43.2468 29.8862C43.2313 30.3225 43.2119 30.7511 43.1886 31.267C43.0916 33.3325 42.7619 34.7385 42.2848 35.9759C41.7984 37.2705 41.0353 38.4433 40.0487 39.4125C39.0795 40.399 37.9067 41.1622 36.6121 41.6486C35.3767 42.1276 33.9687 42.4535 31.9052 42.5504L30.5244 42.6086L30.1481 42.6202C29.192 42.6474 28.0846 42.661 25.9028 42.6648L24.456 42.6668H21.9173C20.5021 42.6718 19.0868 42.6569 17.672 42.6222L17.2957 42.6105C16.8354 42.5931 16.3751 42.5731 15.9149 42.5504C13.8514 42.4535 12.4434 42.1276 11.2061 41.6486C9.91215 41.1619 8.74 40.3988 7.77138 39.4125C6.78413 38.4435 6.02032 37.2707 5.53332 35.9759C5.05429 34.7405 4.72847 33.3325 4.6315 31.267L4.57332 29.8862L4.56363 29.5099C4.52788 28.0958 4.51171 26.6812 4.51514 25.2665V21.2792C4.50977 19.8646 4.524 18.45 4.55781 17.0358L4.57138 16.6595C4.5869 16.2231 4.60629 15.7945 4.62957 15.2787C4.72654 13.2132 5.05235 11.8071 5.53138 10.5698C6.01952 9.27468 6.78467 8.10181 7.77332 7.13321C8.74138 6.14712 9.91284 5.38402 11.2061 4.89709C12.4434 4.41806 13.8494 4.09224 15.9149 3.99527C16.4308 3.972 16.8613 3.9526 17.2957 3.93709L17.672 3.92545C19.0862 3.89099 20.5008 3.87612 21.9154 3.88085L25.9028 3.87891ZM23.9091 13.5759C21.3373 13.5759 18.8708 14.5975 17.0523 16.4161C15.2338 18.2346 14.2121 20.701 14.2121 23.2728C14.2121 25.8446 15.2338 28.3111 17.0523 30.1296C18.8708 31.9482 21.3373 32.9698 23.9091 32.9698C26.4809 32.9698 28.9473 31.9482 30.7659 30.1296C32.5844 28.3111 33.6061 25.8446 33.6061 23.2728C33.6061 20.701 32.5844 18.2346 30.7659 16.4161C28.9473 14.5975 26.4809 13.5759 23.9091 13.5759ZM23.9091 17.4547C24.6731 17.4545 25.4297 17.6049 26.1357 17.8972C26.8416 18.1895 27.4831 18.6179 28.0234 19.1581C28.5638 19.6983 28.9925 20.3396 29.285 21.0454C29.5775 21.7513 29.7281 22.5078 29.7282 23.2719C29.7284 24.0359 29.578 24.7925 29.2857 25.4985C28.9934 26.2044 28.565 26.8459 28.0248 27.3862C27.4846 27.9266 26.8433 28.3553 26.1375 28.6478C25.4316 28.9403 24.6751 29.0909 23.911 29.091C22.3679 29.091 20.8881 28.478 19.7969 27.3869C18.7058 26.2958 18.0928 24.8159 18.0928 23.2728C18.0928 21.7298 18.7058 20.2499 19.7969 19.1588C20.8881 18.0676 22.3679 17.4547 23.911 17.4547M34.0928 10.6668C33.4499 10.6668 32.8333 10.9222 32.3786 11.3768C31.924 11.8315 31.6686 12.4481 31.6686 13.091C31.6686 13.734 31.924 14.3506 32.3786 14.8052C32.8333 15.2599 33.4499 15.5153 34.0928 15.5153C34.7358 15.5153 35.3524 15.2599 35.807 14.8052C36.2617 14.3506 36.5171 13.734 36.5171 13.091C36.5171 12.4481 36.2617 11.8315 35.807 11.3768C35.3524 10.9222 34.7358 10.6668 34.0928 10.6668Z" fill="#DE9000"/>
</svg>
